<mxfile host="app.diagrams.net" modified="2023-11-11T05:29:16.507Z" agent="Mozilla/5.0 (Windows NT 10.0; Win64; x64) AppleWebKit/537.36 (KHTML, like Gecko) Chrome/119.0.0.0 Safari/537.36" etag="78Ol4OR67pm5xEm6XwNK" version="22.1.0" type="device">
  <diagram name="Page-1" id="QsLpwhvYKA0MoBixD7Iq">
    <mxGraphModel dx="2140" dy="1681" grid="1" gridSize="10" guides="1" tooltips="1" connect="1" arrows="1" fold="1" page="1" pageScale="1" pageWidth="850" pageHeight="1100" math="0" shadow="0">
      <root>
        <mxCell id="0" />
        <mxCell id="1" parent="0" />
        <mxCell id="7eI-pTaKLZfjb0d5gNt6-31" value="" style="shape=folder;fontStyle=1;spacingTop=10;tabWidth=40;tabHeight=14;tabPosition=left;html=1;whiteSpace=wrap;" parent="1" vertex="1">
          <mxGeometry x="40" y="640" width="500" height="180" as="geometry" />
        </mxCell>
        <mxCell id="7eI-pTaKLZfjb0d5gNt6-27" value="" style="shape=folder;fontStyle=1;spacingTop=10;tabWidth=40;tabHeight=14;tabPosition=left;html=1;whiteSpace=wrap;" parent="1" vertex="1">
          <mxGeometry x="15" y="-440" width="270" height="140" as="geometry" />
        </mxCell>
        <mxCell id="7eI-pTaKLZfjb0d5gNt6-26" value="" style="shape=folder;fontStyle=1;spacingTop=10;tabWidth=40;tabHeight=14;tabPosition=left;html=1;whiteSpace=wrap;" parent="1" vertex="1">
          <mxGeometry x="540" y="240" width="220" height="140" as="geometry" />
        </mxCell>
        <mxCell id="7eI-pTaKLZfjb0d5gNt6-15" value="" style="shape=folder;fontStyle=1;spacingTop=10;tabWidth=40;tabHeight=14;tabPosition=left;html=1;whiteSpace=wrap;" parent="1" vertex="1">
          <mxGeometry x="40" y="410" width="500" height="180" as="geometry" />
        </mxCell>
        <mxCell id="7eI-pTaKLZfjb0d5gNt6-14" value="" style="shape=folder;fontStyle=0;spacingTop=10;tabWidth=40;tabHeight=14;tabPosition=left;html=1;whiteSpace=wrap;" parent="1" vertex="1">
          <mxGeometry x="-120" y="-230" width="420" height="150" as="geometry" />
        </mxCell>
        <mxCell id="7eI-pTaKLZfjb0d5gNt6-13" value="package" style="shape=folder;fontStyle=1;spacingTop=10;tabWidth=40;tabHeight=14;tabPosition=left;html=1;whiteSpace=wrap;" parent="1" vertex="1">
          <mxGeometry x="30" y="-50" width="240" height="420" as="geometry" />
        </mxCell>
        <mxCell id="7eI-pTaKLZfjb0d5gNt6-12" value="" style="shape=folder;fontStyle=1;spacingTop=10;tabWidth=40;tabHeight=14;tabPosition=left;html=1;whiteSpace=wrap;" parent="1" vertex="1">
          <mxGeometry x="310" y="-60" width="670" height="280" as="geometry" />
        </mxCell>
        <mxCell id="7eI-pTaKLZfjb0d5gNt6-46" style="edgeStyle=orthogonalEdgeStyle;rounded=0;orthogonalLoop=1;jettySize=auto;html=1;endArrow=block;endFill=0;dashed=1;" parent="1" source="7eI-pTaKLZfjb0d5gNt6-3" target="7eI-pTaKLZfjb0d5gNt6-22" edge="1">
          <mxGeometry relative="1" as="geometry" />
        </mxCell>
        <mxCell id="7eI-pTaKLZfjb0d5gNt6-58" style="edgeStyle=orthogonalEdgeStyle;rounded=0;orthogonalLoop=1;jettySize=auto;html=1;exitX=0;exitY=0.5;exitDx=0;exitDy=0;entryX=0;entryY=0.5;entryDx=0;entryDy=0;endArrow=open;endFill=0;" parent="1" source="7eI-pTaKLZfjb0d5gNt6-3" target="7eI-pTaKLZfjb0d5gNt6-21" edge="1">
          <mxGeometry relative="1" as="geometry" />
        </mxCell>
        <mxCell id="7eI-pTaKLZfjb0d5gNt6-72" style="edgeStyle=orthogonalEdgeStyle;rounded=0;orthogonalLoop=1;jettySize=auto;html=1;dashed=1;endArrow=open;endFill=0;" parent="1" source="7eI-pTaKLZfjb0d5gNt6-3" target="7eI-pTaKLZfjb0d5gNt6-21" edge="1">
          <mxGeometry relative="1" as="geometry">
            <Array as="points">
              <mxPoint x="250" y="300" />
              <mxPoint x="250" y="90" />
              <mxPoint x="150" y="90" />
            </Array>
          </mxGeometry>
        </mxCell>
        <mxCell id="7eI-pTaKLZfjb0d5gNt6-3" value="&lt;p style=&quot;margin:0px;margin-top:4px;text-align:center;&quot;&gt;&lt;br&gt;&lt;b&gt;PlayerDeathMessageBus&lt;/b&gt;&lt;/p&gt;" style="verticalAlign=top;align=left;overflow=fill;fontSize=12;fontFamily=Helvetica;html=1;whiteSpace=wrap;" parent="1" vertex="1">
          <mxGeometry x="65" y="270" width="170" height="60" as="geometry" />
        </mxCell>
        <mxCell id="7eI-pTaKLZfjb0d5gNt6-42" style="edgeStyle=orthogonalEdgeStyle;rounded=0;orthogonalLoop=1;jettySize=auto;html=1;exitX=0.5;exitY=1;exitDx=0;exitDy=0;endArrow=block;endFill=0;" parent="1" source="7eI-pTaKLZfjb0d5gNt6-4" target="7eI-pTaKLZfjb0d5gNt6-30" edge="1">
          <mxGeometry relative="1" as="geometry">
            <Array as="points">
              <mxPoint x="650" y="240" />
              <mxPoint x="650" y="240" />
            </Array>
          </mxGeometry>
        </mxCell>
        <mxCell id="7eI-pTaKLZfjb0d5gNt6-48" style="edgeStyle=orthogonalEdgeStyle;rounded=0;orthogonalLoop=1;jettySize=auto;html=1;entryX=1;entryY=0.75;entryDx=0;entryDy=0;endArrow=open;endFill=0;" parent="1" source="7eI-pTaKLZfjb0d5gNt6-4" target="7eI-pTaKLZfjb0d5gNt6-3" edge="1">
          <mxGeometry relative="1" as="geometry">
            <Array as="points">
              <mxPoint x="408" y="160" />
              <mxPoint x="408" y="315" />
            </Array>
          </mxGeometry>
        </mxCell>
        <mxCell id="7eI-pTaKLZfjb0d5gNt6-74" style="edgeStyle=orthogonalEdgeStyle;rounded=0;orthogonalLoop=1;jettySize=auto;html=1;entryX=1;entryY=0.75;entryDx=0;entryDy=0;endArrow=open;endFill=0;" parent="1" source="7eI-pTaKLZfjb0d5gNt6-4" target="7eI-pTaKLZfjb0d5gNt6-73" edge="1">
          <mxGeometry relative="1" as="geometry">
            <Array as="points">
              <mxPoint x="830" y="160" />
              <mxPoint x="830" y="760" />
            </Array>
          </mxGeometry>
        </mxCell>
        <mxCell id="7eI-pTaKLZfjb0d5gNt6-4" value="&lt;p style=&quot;margin:0px;margin-top:4px;text-align:center;&quot;&gt;&lt;br&gt;&lt;b&gt;Player&lt;/b&gt;&lt;/p&gt;" style="verticalAlign=top;align=left;overflow=fill;fontSize=12;fontFamily=Helvetica;html=1;whiteSpace=wrap;" parent="1" vertex="1">
          <mxGeometry x="580" y="130" width="140" height="60" as="geometry" />
        </mxCell>
        <mxCell id="7eI-pTaKLZfjb0d5gNt6-45" style="edgeStyle=orthogonalEdgeStyle;rounded=0;orthogonalLoop=1;jettySize=auto;html=1;endArrow=block;endFill=0;" parent="1" source="7eI-pTaKLZfjb0d5gNt6-5" target="7eI-pTaKLZfjb0d5gNt6-29" edge="1">
          <mxGeometry relative="1" as="geometry" />
        </mxCell>
        <mxCell id="7eI-pTaKLZfjb0d5gNt6-5" value="&lt;p style=&quot;margin:0px;margin-top:4px;text-align:center;&quot;&gt;&lt;br&gt;&lt;b&gt;Abxervyer&lt;/b&gt;&lt;/p&gt;" style="verticalAlign=top;align=left;overflow=fill;fontSize=12;fontFamily=Helvetica;html=1;whiteSpace=wrap;" parent="1" vertex="1">
          <mxGeometry x="810" width="140" height="60" as="geometry" />
        </mxCell>
        <mxCell id="7eI-pTaKLZfjb0d5gNt6-49" style="edgeStyle=orthogonalEdgeStyle;rounded=0;orthogonalLoop=1;jettySize=auto;html=1;exitX=0;exitY=0.5;exitDx=0;exitDy=0;endArrow=block;endFill=0;dashed=1;" parent="1" source="7eI-pTaKLZfjb0d5gNt6-9" target="7eI-pTaKLZfjb0d5gNt6-24" edge="1">
          <mxGeometry relative="1" as="geometry" />
        </mxCell>
        <mxCell id="7eI-pTaKLZfjb0d5gNt6-50" style="edgeStyle=orthogonalEdgeStyle;rounded=0;orthogonalLoop=1;jettySize=auto;html=1;endArrow=block;endFill=0;" parent="1" source="7eI-pTaKLZfjb0d5gNt6-9" target="7eI-pTaKLZfjb0d5gNt6-23" edge="1">
          <mxGeometry relative="1" as="geometry" />
        </mxCell>
        <mxCell id="7eI-pTaKLZfjb0d5gNt6-9" value="&lt;p style=&quot;margin:0px;margin-top:4px;text-align:center;&quot;&gt;&lt;br&gt;&lt;b&gt;Rune&lt;/b&gt;&lt;/p&gt;" style="verticalAlign=top;align=left;overflow=fill;fontSize=12;fontFamily=Helvetica;html=1;whiteSpace=wrap;" parent="1" vertex="1">
          <mxGeometry x="90" y="-170" width="140" height="60" as="geometry" />
        </mxCell>
        <mxCell id="7eI-pTaKLZfjb0d5gNt6-41" style="edgeStyle=orthogonalEdgeStyle;rounded=0;orthogonalLoop=1;jettySize=auto;html=1;endArrow=none;endFill=0;" parent="1" source="7eI-pTaKLZfjb0d5gNt6-10" edge="1">
          <mxGeometry relative="1" as="geometry">
            <mxPoint x="290" y="700" as="targetPoint" />
            <Array as="points">
              <mxPoint x="415" y="630" />
              <mxPoint x="290" y="630" />
            </Array>
          </mxGeometry>
        </mxCell>
        <mxCell id="7eI-pTaKLZfjb0d5gNt6-65" style="edgeStyle=orthogonalEdgeStyle;rounded=0;orthogonalLoop=1;jettySize=auto;html=1;endArrow=open;endFill=0;dashed=1;" parent="1" source="7eI-pTaKLZfjb0d5gNt6-10" target="7eI-pTaKLZfjb0d5gNt6-30" edge="1">
          <mxGeometry relative="1" as="geometry" />
        </mxCell>
        <mxCell id="7eI-pTaKLZfjb0d5gNt6-10" value="&lt;p style=&quot;margin:0px;margin-top:4px;text-align:center;&quot;&gt;&lt;br&gt;&lt;b&gt;Void&lt;/b&gt;&lt;/p&gt;" style="verticalAlign=top;align=left;overflow=fill;fontSize=12;fontFamily=Helvetica;html=1;whiteSpace=wrap;" parent="1" vertex="1">
          <mxGeometry x="345" y="490" width="140" height="60" as="geometry" />
        </mxCell>
        <mxCell id="7eI-pTaKLZfjb0d5gNt6-40" style="edgeStyle=orthogonalEdgeStyle;rounded=0;orthogonalLoop=1;jettySize=auto;html=1;endArrow=block;endFill=0;" parent="1" source="7eI-pTaKLZfjb0d5gNt6-11" target="7eI-pTaKLZfjb0d5gNt6-25" edge="1">
          <mxGeometry relative="1" as="geometry">
            <Array as="points">
              <mxPoint x="165" y="630" />
              <mxPoint x="290" y="630" />
            </Array>
          </mxGeometry>
        </mxCell>
        <mxCell id="7eI-pTaKLZfjb0d5gNt6-64" style="edgeStyle=orthogonalEdgeStyle;rounded=0;orthogonalLoop=1;jettySize=auto;html=1;exitX=0;exitY=0.5;exitDx=0;exitDy=0;entryX=0.5;entryY=0;entryDx=0;entryDy=0;endArrow=block;endFill=0;dashed=1;" parent="1" source="7eI-pTaKLZfjb0d5gNt6-11" target="7eI-pTaKLZfjb0d5gNt6-21" edge="1">
          <mxGeometry relative="1" as="geometry">
            <Array as="points">
              <mxPoint x="-40" y="520" />
              <mxPoint x="-40" y="-10" />
              <mxPoint x="150" y="-10" />
            </Array>
          </mxGeometry>
        </mxCell>
        <mxCell id="7eI-pTaKLZfjb0d5gNt6-11" value="&lt;p style=&quot;margin:0px;margin-top:4px;text-align:center;&quot;&gt;&lt;br&gt;&lt;b&gt;Gate&lt;/b&gt;&lt;/p&gt;" style="verticalAlign=top;align=left;overflow=fill;fontSize=12;fontFamily=Helvetica;html=1;whiteSpace=wrap;" parent="1" vertex="1">
          <mxGeometry x="95" y="490" width="140" height="60" as="geometry" />
        </mxCell>
        <mxCell id="7eI-pTaKLZfjb0d5gNt6-21" value="«interface»&lt;br&gt;&lt;b data-darkreader-inline-border=&quot;&quot; style=&quot;border-color: var(--darkreader-border--border-color); --darkreader-inline-border: var(--darkreader-border--darkreader-border--border-color);&quot;&gt;DeathSubscriber&lt;/b&gt;" style="html=1;whiteSpace=wrap;" parent="1" vertex="1">
          <mxGeometry x="95" y="5" width="110" height="50" as="geometry" />
        </mxCell>
        <mxCell id="7eI-pTaKLZfjb0d5gNt6-22" value="«interface»&lt;br&gt;&lt;b data-darkreader-inline-border=&quot;&quot; style=&quot;border-color: var(--darkreader-border--border-color); --darkreader-inline-border: var(--darkreader-border--darkreader-border--border-color);&quot;&gt;DeathPublisher&lt;/b&gt;" style="html=1;whiteSpace=wrap;" parent="1" vertex="1">
          <mxGeometry x="95" y="135" width="110" height="50" as="geometry" />
        </mxCell>
        <mxCell id="7eI-pTaKLZfjb0d5gNt6-23" value="«abstract»&lt;br&gt;&lt;b&gt;Item&lt;/b&gt;" style="html=1;whiteSpace=wrap;" parent="1" vertex="1">
          <mxGeometry x="105" y="-380" width="110" height="50" as="geometry" />
        </mxCell>
        <mxCell id="7eI-pTaKLZfjb0d5gNt6-24" value="«interface»&lt;br&gt;&lt;b&gt;Consumable&lt;/b&gt;" style="html=1;whiteSpace=wrap;" parent="1" vertex="1">
          <mxGeometry x="-100" y="-165" width="110" height="50" as="geometry" />
        </mxCell>
        <mxCell id="7eI-pTaKLZfjb0d5gNt6-25" value="«abstract»&lt;br&gt;&lt;b&gt;Ground&lt;/b&gt;" style="html=1;whiteSpace=wrap;" parent="1" vertex="1">
          <mxGeometry x="235" y="720" width="110" height="50" as="geometry" />
        </mxCell>
        <mxCell id="7eI-pTaKLZfjb0d5gNt6-43" style="edgeStyle=orthogonalEdgeStyle;rounded=0;orthogonalLoop=1;jettySize=auto;html=1;entryX=0;entryY=0.5;entryDx=0;entryDy=0;endArrow=block;endFill=0;" parent="1" source="7eI-pTaKLZfjb0d5gNt6-28" target="7eI-pTaKLZfjb0d5gNt6-30" edge="1">
          <mxGeometry relative="1" as="geometry">
            <Array as="points">
              <mxPoint x="426" y="320" />
            </Array>
          </mxGeometry>
        </mxCell>
        <mxCell id="7eI-pTaKLZfjb0d5gNt6-47" style="edgeStyle=orthogonalEdgeStyle;rounded=0;orthogonalLoop=1;jettySize=auto;html=1;entryX=1;entryY=0.5;entryDx=0;entryDy=0;endArrow=block;endFill=0;dashed=1;" parent="1" source="7eI-pTaKLZfjb0d5gNt6-28" target="7eI-pTaKLZfjb0d5gNt6-21" edge="1">
          <mxGeometry relative="1" as="geometry" />
        </mxCell>
        <mxCell id="7eI-pTaKLZfjb0d5gNt6-28" value="«abstract»&lt;br&gt;&lt;b data-darkreader-inline-border=&quot;&quot; style=&quot;border-color: var(--darkreader-border--border-color); --darkreader-inline-border: var(--darkreader-border--darkreader-border--border-color);&quot;&gt;EnemyActor&lt;/b&gt;" style="html=1;whiteSpace=wrap;" parent="1" vertex="1">
          <mxGeometry x="368" width="115" height="60" as="geometry" />
        </mxCell>
        <mxCell id="7eI-pTaKLZfjb0d5gNt6-44" style="edgeStyle=orthogonalEdgeStyle;rounded=0;orthogonalLoop=1;jettySize=auto;html=1;endArrow=block;endFill=0;" parent="1" source="7eI-pTaKLZfjb0d5gNt6-29" target="7eI-pTaKLZfjb0d5gNt6-28" edge="1">
          <mxGeometry relative="1" as="geometry" />
        </mxCell>
        <mxCell id="7eI-pTaKLZfjb0d5gNt6-29" value="«abstract»&lt;br&gt;&lt;b data-darkreader-inline-border=&quot;&quot; style=&quot;border-color: var(--darkreader-border--border-color); --darkreader-inline-border: var(--darkreader-border--darkreader-border--border-color);&quot;&gt;BossEnemy&lt;/b&gt;" style="html=1;whiteSpace=wrap;" parent="1" vertex="1">
          <mxGeometry x="580" width="115" height="60" as="geometry" />
        </mxCell>
        <mxCell id="7eI-pTaKLZfjb0d5gNt6-30" value="«abstract»&lt;br&gt;&lt;b data-darkreader-inline-border=&quot;&quot; style=&quot;border-color: var(--darkreader-border--border-color); --darkreader-inline-border: var(--darkreader-border--darkreader-border--border-color);&quot;&gt;Actor&lt;/b&gt;" style="html=1;whiteSpace=wrap;" parent="1" vertex="1">
          <mxGeometry x="592.5" y="290" width="115" height="60" as="geometry" />
        </mxCell>
        <UserObject label="edu.monash.fit2099.engine.actors" link="edu.monash.fit2099.engine.actors" id="7eI-pTaKLZfjb0d5gNt6-33">
          <mxCell style="text;whiteSpace=wrap;" parent="1" vertex="1">
            <mxGeometry x="550" y="260" width="210" height="40" as="geometry" />
          </mxCell>
        </UserObject>
        <UserObject label="edu.monash.fit2099.engine.positions" link="edu.monash.fit2099.engine.positions" id="7eI-pTaKLZfjb0d5gNt6-34">
          <mxCell style="text;whiteSpace=wrap;" parent="1" vertex="1">
            <mxGeometry x="50" y="660" width="230" height="60" as="geometry" />
          </mxCell>
        </UserObject>
        <UserObject label="edu.monash.fit2099.engine.items" link="edu.monash.fit2099.engine.positions" id="7eI-pTaKLZfjb0d5gNt6-35">
          <mxCell style="text;whiteSpace=wrap;" parent="1" vertex="1">
            <mxGeometry x="35" y="-420" width="230" height="40" as="geometry" />
          </mxCell>
        </UserObject>
        <UserObject label="game.items" link="game.items" id="7eI-pTaKLZfjb0d5gNt6-36">
          <mxCell style="text;whiteSpace=wrap;" parent="1" vertex="1">
            <mxGeometry x="-110" y="-210" width="100" height="40" as="geometry" />
          </mxCell>
        </UserObject>
        <UserObject label="game.notifications" link="game.items" id="7eI-pTaKLZfjb0d5gNt6-37">
          <mxCell style="text;whiteSpace=wrap;" parent="1" vertex="1">
            <mxGeometry x="50" y="-40" width="100" height="40" as="geometry" />
          </mxCell>
        </UserObject>
        <UserObject label="game.ground" link="game.items" id="7eI-pTaKLZfjb0d5gNt6-38">
          <mxCell style="text;whiteSpace=wrap;" parent="1" vertex="1">
            <mxGeometry x="50" y="430" width="100" height="40" as="geometry" />
          </mxCell>
        </UserObject>
        <UserObject label="game.actors" link="game.items" id="7eI-pTaKLZfjb0d5gNt6-39">
          <mxCell style="text;whiteSpace=wrap;" parent="1" vertex="1">
            <mxGeometry x="320" y="-40" width="100" height="40" as="geometry" />
          </mxCell>
        </UserObject>
        <mxCell id="7eI-pTaKLZfjb0d5gNt6-51" style="edgeStyle=orthogonalEdgeStyle;rounded=0;orthogonalLoop=1;jettySize=auto;html=1;exitX=0.5;exitY=1;exitDx=0;exitDy=0;entryX=0.584;entryY=0.008;entryDx=0;entryDy=0;entryPerimeter=0;endArrow=block;endFill=0;dashed=1;" parent="1" source="7eI-pTaKLZfjb0d5gNt6-9" target="7eI-pTaKLZfjb0d5gNt6-21" edge="1">
          <mxGeometry relative="1" as="geometry" />
        </mxCell>
        <mxCell id="7eI-pTaKLZfjb0d5gNt6-52" value="1" style="text;html=1;align=center;verticalAlign=middle;resizable=0;points=[];autosize=1;strokeColor=none;fillColor=none;" parent="1" vertex="1">
          <mxGeometry x="230" y="320" width="30" height="30" as="geometry" />
        </mxCell>
        <mxCell id="7eI-pTaKLZfjb0d5gNt6-53" value="1" style="text;html=1;align=center;verticalAlign=middle;resizable=0;points=[];autosize=1;strokeColor=none;fillColor=none;" parent="1" vertex="1">
          <mxGeometry x="550" y="160" width="30" height="30" as="geometry" />
        </mxCell>
        <mxCell id="7eI-pTaKLZfjb0d5gNt6-54" value="◀ has" style="text;html=1;align=center;verticalAlign=middle;resizable=0;points=[];autosize=1;strokeColor=none;fillColor=none;" parent="1" vertex="1">
          <mxGeometry x="320" y="285" width="60" height="30" as="geometry" />
        </mxCell>
        <mxCell id="7eI-pTaKLZfjb0d5gNt6-59" value="▲ has" style="text;html=1;align=center;verticalAlign=middle;resizable=0;points=[];autosize=1;strokeColor=none;fillColor=none;" parent="1" vertex="1">
          <mxGeometry x="35" y="155" width="60" height="30" as="geometry" />
        </mxCell>
        <mxCell id="7eI-pTaKLZfjb0d5gNt6-61" value="0..*" style="text;html=1;align=center;verticalAlign=middle;resizable=0;points=[];autosize=1;strokeColor=none;fillColor=none;" parent="1" vertex="1">
          <mxGeometry x="55" width="40" height="30" as="geometry" />
        </mxCell>
        <mxCell id="7eI-pTaKLZfjb0d5gNt6-62" value="1" style="text;html=1;align=center;verticalAlign=middle;resizable=0;points=[];autosize=1;strokeColor=none;fillColor=none;" parent="1" vertex="1">
          <mxGeometry x="30" y="300" width="30" height="30" as="geometry" />
        </mxCell>
        <mxCell id="7eI-pTaKLZfjb0d5gNt6-66" value="«calls upon»" style="text;html=1;align=center;verticalAlign=middle;resizable=0;points=[];autosize=1;strokeColor=none;fillColor=none;" parent="1" vertex="1">
          <mxGeometry x="535" y="518" width="90" height="30" as="geometry" />
        </mxCell>
        <mxCell id="7eI-pTaKLZfjb0d5gNt6-56" value="«notifies»" style="text;html=1;align=center;verticalAlign=middle;resizable=0;points=[];autosize=1;strokeColor=none;fillColor=none;" parent="1" vertex="1">
          <mxGeometry x="150" y="90" width="70" height="30" as="geometry" />
        </mxCell>
        <mxCell id="7eI-pTaKLZfjb0d5gNt6-73" value="&lt;p style=&quot;margin:0px;margin-top:4px;text-align:center;&quot;&gt;&lt;br&gt;&lt;b&gt;GameMap&lt;/b&gt;&lt;/p&gt;" style="verticalAlign=top;align=left;overflow=fill;fontSize=12;fontFamily=Helvetica;html=1;whiteSpace=wrap;" parent="1" vertex="1">
          <mxGeometry x="380" y="715" width="140" height="60" as="geometry" />
        </mxCell>
        <mxCell id="7eI-pTaKLZfjb0d5gNt6-75" value="1" style="text;html=1;align=center;verticalAlign=middle;resizable=0;points=[];autosize=1;strokeColor=none;fillColor=none;" parent="1" vertex="1">
          <mxGeometry x="720" y="160" width="30" height="30" as="geometry" />
        </mxCell>
        <mxCell id="7eI-pTaKLZfjb0d5gNt6-76" value="1" style="text;html=1;align=center;verticalAlign=middle;resizable=0;points=[];autosize=1;strokeColor=none;fillColor=none;" parent="1" vertex="1">
          <mxGeometry x="520" y="730" width="30" height="30" as="geometry" />
        </mxCell>
        <mxCell id="7eI-pTaKLZfjb0d5gNt6-77" value="◀ spawns in" style="text;html=1;align=center;verticalAlign=middle;resizable=0;points=[];autosize=1;strokeColor=none;fillColor=none;" parent="1" vertex="1">
          <mxGeometry x="632.5" y="730" width="90" height="30" as="geometry" />
        </mxCell>
      </root>
    </mxGraphModel>
  </diagram>
</mxfile>
